<svg width="320" height="80" viewBox="0 0 320 80" fill="none" xmlns="http://www.w3.org/2000/svg">
<title>Open Medical Skills - Full Wordmark</title>
<g id="Logo">
    <g id="Icon">
        <path d="M55.25 10.75C55.25 10.75 32 4 8.75 10.75C8.75 10.75 5 32 32 60C59 32 55.25 10.75 55.25 10.75Z" fill="#0D9488"/>
        <path d="M32 17L37.1962 27.4019L47.5981 32L37.1962 36.5981L32 47L26.8038 36.5981L16.4019 32L26.8038 27.4019L32 17Z" fill="#0A7A70"/>
        <path d="M32 19L36.2452 27.7548L45 32L36.2452 36.2452L32 45L27.7548 36.2452L19 32L27.7548 27.7548L32 19Z" fill="white"/>
    </g>
    <text x="80" y="38" font-family="Inter, sans-serif" font-size="22" font-weight="600" fill="#0D9488">Open Medical Skills</text>
    <text x="80" y="58" font-family="Inter, sans-serif" font-size="14" font-weight="400" fill="#64748b">by IntelMedica.ai</text>
</g>
</svg>
